# xmcd CD database file
# Copyright (C) 1993-1998 Ti Kan
#
# Track frame offsets:
#	183
#	14970
#	34313
#	49468
#	69088
#	92853
#	105180
#	120365
#	139430
#	157625
#	168610
#	183105
#	199693
#	211840
#	225540
#
# Disc length: 3221 seconds
#
# Revision: 1
# Processed by: cddbd v1.4b41PL1 Copyright (c) Steve Scherf et al.
# Submitted via: CDValet v3.01 - Copyright (c) 1997 Greg Leichner
#
DISCID=c50c930f
DTITLE=Roger Whittaker - All Time favourites Vol. 2
DYEAR=1900
DGENRE=
TTITLE0=I Don't Believe In It Anymore
TTITLE1=Your Song
TTITLE2=When I Need You
TTITLE3=Indian Lady
TTITLE4=Newport Belle
TTITLE5=Your Voice
TTITLE6=Everybody's Got A Lonely Heart
TTITLE7=Mary
TTITLE8=Wind Beneath My Wings
TTITLE9=And Still The Sea
TTITLE10=The Skye Boat Song
TTITLE11=Imagine
TTITLE12=I Can See Clearly Now
TTITLE13=Hold On Tight
TTITLE14=All Of My Life
EXTD=
EXTT0=
EXTT1=
EXTT2=
EXTT3=
EXTT4=
EXTT5=
EXTT6=
EXTT7=
EXTT8=
EXTT9=
EXTT10=
EXTT11=
EXTT12=
EXTT13=
EXTT14=
PLAYORDER=
